<?xml version="1.0" encoding="UTF-8" standalone="no"?><!DOCTYPE svg PUBLIC "-//W3C//DTD SVG 1.1//EN" "http://www.w3.org/Graphics/SVG/1.1/DTD/svg11.dtd"><svg width="100%" height="100%" viewBox="0 0 2000 800" version="1.1" xmlns="http://www.w3.org/2000/svg" xmlns:xlink="http://www.w3.org/1999/xlink" xml:space="preserve" style="fill-rule:evenodd;clip-rule:evenodd;stroke-linejoin:round;stroke-miterlimit:1.41421;"><g><path d="M0,797l0,99l6,-11l-6,-88Z" style="fill:#37bfbf;fill-rule:nonzero;"/><path d="M0,99l0,100l18,-58l-18,-42Z" style="fill:#106a71;fill-rule:nonzero;"/><path d="M0,298l0,100l6,-8l-6,-92Z" style="fill:#14a3a3;fill-rule:nonzero;"/><path d="M0,498l0,99l24,-60l-24,-39Z" style="fill:#0eb0b1;fill-rule:nonzero;"/><path d="M0,797l6,88l15,-6l-21,-82Z" style="fill:#116463;fill-rule:nonzero;"/><path d="M0,0l0,99l12,-96l-12,-3Z" style="fill:#118586;fill-rule:nonzero;"/><path d="M0,797l21,82l24,-30l-45,-52Z" style="fill:#0b9d9e;fill-rule:nonzero;"/><path d="M0,597l0,100l48,-70l-48,-30Z" style="fill:#0e6d6d;fill-rule:nonzero;"/><path d="M0,697l0,100l48,-77l-48,-23Z" style="fill:#10605d;fill-rule:nonzero;"/><path d="M12,3l-12,96l24,-93l-12,-3Z" style="fill:#0f8486;fill-rule:nonzero;"/><path d="M0,199l0,99l48,-88l-48,-11Z" style="fill:#c2e7ef;fill-rule:nonzero;"/><path d="M18,141l-18,58l48,11l-30,-69Z" style="fill:#074446;fill-rule:nonzero;"/><path d="M0,498l24,39l51,-51l-75,12Z" style="fill:#0a9797;fill-rule:nonzero;"/><path d="M0,398l0,100l75,-12l-75,-88Z" style="fill:#0c7777;fill-rule:nonzero;"/><path d="M0,697l48,23l0,-93l-48,70Z" style="fill:#0d5657;fill-rule:nonzero;"/><path d="M24,537l-24,60l48,30l-24,-90Z" style="fill:#0c7c7d;fill-rule:nonzero;"/><path d="M0,298l6,92l105,-63l-111,-29Z" style="fill:#093636;fill-rule:nonzero;"/><path d="M6,390l-6,8l75,88l-69,-96Z" style="fill:#72cdda;fill-rule:nonzero;"/><path d="M75,486l-51,51l90,0l-39,-51Z" style="fill:#072625;fill-rule:nonzero;"/><path d="M0,797l45,52l78,-66l-123,14Z" style="fill:#0b7472;fill-rule:nonzero;"/><path d="M48,720l-48,77l123,-14l-75,-63Z" style="fill:#089b9d;fill-rule:nonzero;"/><path d="M24,537l24,90l66,-90l-90,0Z" style="fill:#0a7477;fill-rule:nonzero;"/><path d="M48,210l-48,88l111,29l-63,-117Z" style="fill:#0a4347;fill-rule:nonzero;"/><path d="M114,537l-66,90l90,-39l-24,-51Z" style="fill:#0c5457;fill-rule:nonzero;"/><path d="M24,6l-24,93l99,-99l-75,6Z" style="fill:#0c7372;fill-rule:nonzero;"/><path d="M6,390l69,96l36,-159l-105,63Z" style="fill:#0f9490;fill-rule:nonzero;"/><path d="M168,807l-45,-24l48,72l-3,-48Z" style="fill:#a8dde5;fill-rule:nonzero;"/><path d="M123,783l-78,66l126,6l-48,-72Z" style="fill:#0f6c6c;fill-rule:nonzero;"/><path d="M0,99l18,42l81,-141l-99,99Z" style="fill:#051717;fill-rule:nonzero;"/><path d="M12,3l12,3l75,-6l-87,3Z" style="fill:#099897;fill-rule:nonzero;"/><path d="M99,0l-81,141l177,-39l-96,-102Z" style="fill:#094b4d;fill-rule:nonzero;"/><path d="M177,597l-39,-9l60,57l-21,-48Z" style="fill:#0d6f71;fill-rule:nonzero;"/><path d="M123,783l45,24l30,-30l-75,6Z" style="fill:#138c88;fill-rule:nonzero;"/><path d="M48,627l0,93l150,-75l-150,-18Z" style="fill:#148588;fill-rule:nonzero;"/><path d="M138,588l-90,39l150,18l-60,-57Z" style="fill:#16abab;fill-rule:nonzero;"/><path d="M18,141l30,69l147,-108l-177,39Z" style="fill:#094042;fill-rule:nonzero;"/><path d="M123,783l75,-6l9,-15l-84,21Z" style="fill:#0b4645;fill-rule:nonzero;"/><path d="M99,0l96,102l4,-102l-100,0Z" style="fill:#12b6b8;fill-rule:nonzero;"/><path d="M48,720l75,63l75,-138l-150,75Z" style="fill:#bce5eb;fill-rule:nonzero;"/><path d="M111,327l-36,159l114,-138l-78,-21Z" style="fill:#2abec0;fill-rule:nonzero;"/><path d="M114,537l24,51l39,9l-63,-60Z" style="fill:#0db2b4;fill-rule:nonzero;"/><path d="M198,645l-75,138l84,-21l-9,-117Z" style="fill:#b1e0e7;fill-rule:nonzero;"/><path d="M0,0l12,3l87,-3l-99,0Z" style="fill:#18b9b7;fill-rule:nonzero;"/><path d="M207,762l-9,15l51,6l-42,-21Z" style="fill:#c7e9ee;fill-rule:nonzero;"/><path d="M198,777l-30,30l69,54l-39,-84Z" style="fill:#6ecbd6;fill-rule:nonzero;"/><path d="M114,537l63,60l87,-93l-150,33Z" style="fill:#0d6e70;fill-rule:nonzero;"/><path d="M48,210l63,117l153,-57l-216,-60Z" style="fill:#16a6a3;fill-rule:nonzero;"/><path d="M111,327l78,21l75,-78l-153,57Z" style="fill:#081212;fill-rule:nonzero;"/><path d="M198,777l39,84l12,-78l-51,-6Z" style="fill:#17aaaa;fill-rule:nonzero;"/><path d="M189,348l-75,189l150,-33l-75,-156Z" style="fill:#062c2e;fill-rule:nonzero;"/><path d="M189,348l69,3l6,-81l-75,78Z" style="fill:#0b3e3b;fill-rule:nonzero;"/><path d="M195,102l-147,108l216,60l-69,-168Z" style="fill:#0eb5b7;fill-rule:nonzero;"/><path d="M75,486l39,51l75,-189l-114,138Z" style="fill:#5dc7d3;fill-rule:nonzero;"/><path d="M207,762l42,21l27,-18l-69,-3Z" style="fill:#9fdae3;fill-rule:nonzero;"/><path d="M258,351l-69,-3l96,69l-27,-66Z" style="fill:#0a9797;fill-rule:nonzero;"/><path d="M282,375l-24,-24l27,66l-3,-42Z" style="fill:#168f90;fill-rule:nonzero;"/><path d="M189,348l75,156l21,-87l-96,-69Z" style="fill:#062423;fill-rule:nonzero;"/><path d="M199,0l-4,102l45,9l-41,-111Z" style="fill:#106564;fill-rule:nonzero;"/><path d="M177,597l21,48l93,-54l-114,6Z" style="fill:#68c9d1;fill-rule:nonzero;"/><path d="M264,504l-87,93l114,-6l-27,-87Z" style="fill:#42c2c9;fill-rule:nonzero;"/><path d="M240,111l-45,-9l69,168l-24,-159Z" style="fill:#56c6cf;fill-rule:nonzero;"/><path d="M264,270l-6,81l48,-12l-42,-69Z" style="fill:#0f615f;fill-rule:nonzero;"/><path d="M258,351l24,24l24,-36l-48,12Z" style="fill:#0e9b9e;fill-rule:nonzero;"/><path d="M199,0l41,111l58,-111l-99,0Z" style="fill:#35bfc2;fill-rule:nonzero;"/><path d="M198,645l9,117l69,3l-78,-120Z" style="fill:#4ac3c7;fill-rule:nonzero;"/><path d="M249,783l-12,78l87,-57l-75,-21Z" style="fill:#87d2db;fill-rule:nonzero;"/><path d="M276,765l-27,18l75,21l-48,-39Z" style="fill:#92d6e1;fill-rule:nonzero;"/><path d="M285,417l-21,87l69,-24l-48,-63Z" style="fill:#109494;fill-rule:nonzero;"/><path d="M276,765l48,39l12,-18l-60,-21Z" style="fill:#18aba9;fill-rule:nonzero;"/><path d="M198,645l78,120l69,-90l-147,-30Z" style="fill:#acdee5;fill-rule:nonzero;"/><path d="M291,591l-93,54l147,30l-54,-84Z" style="fill:#0f6364;fill-rule:nonzero;"/><path d="M240,111l24,159l66,-150l-90,-9Z" style="fill:#0a3f41;fill-rule:nonzero;"/><path d="M298,0l-58,111l90,9l-32,-120Z" style="fill:#11b1b0;fill-rule:nonzero;"/><path d="M264,504l27,87l42,-111l-69,24Z" style="fill:#5ac7d2;fill-rule:nonzero;"/><path d="M276,765l60,21l9,-111l-69,90Z" style="fill:#62c8ce;fill-rule:nonzero;"/><path d="M345,675l-9,111l72,-45l-63,-66Z" style="fill:#e8f6fc;fill-rule:nonzero;"/><path d="M298,0l32,120l68,-120l-100,0Z" style="fill:#072322;fill-rule:nonzero;"/><path d="M336,786l-12,18l42,75l-30,-93Z" style="fill:#a1dbe7;fill-rule:nonzero;"/><path d="M282,375l3,42l21,-78l-24,36Z" style="fill:#10b3b0;fill-rule:nonzero;"/><path d="M285,417l48,63l111,-51l-159,-12Z" style="fill:#0d716d;fill-rule:nonzero;"/><path d="M306,339l138,90l6,-57l-144,-33Z" style="fill:#0b4545;fill-rule:nonzero;"/><path d="M333,480l-42,111l159,-27l-117,-84Z" style="fill:#23bdbc;fill-rule:nonzero;"/><path d="M306,339l-21,78l159,12l-138,-90Z" style="fill:#08302f;fill-rule:nonzero;"/><path d="M330,120l-66,150l192,-99l-126,-51Z" style="fill:#092d30;fill-rule:nonzero;"/><path d="M291,591l54,84l111,-72l-165,-12Z" style="fill:#1aa8a8;fill-rule:nonzero;"/><path d="M450,564l-159,27l165,12l-6,-39Z" style="fill:#0b9b9e;fill-rule:nonzero;"/><path d="M336,786l30,93l42,-138l-72,45Z" style="fill:#59c6cd;fill-rule:nonzero;"/><path d="M444,429l-111,51l147,39l-36,-90Z" style="fill:#13918f;fill-rule:nonzero;"/><path d="M333,480l117,84l30,-45l-147,-39Z" style="fill:#0a4445;fill-rule:nonzero;"/><path d="M264,270l42,69l150,-168l-192,99Z" style="fill:#30bebb;fill-rule:nonzero;"/><path d="M345,675l63,66l48,-138l-111,72Z" style="fill:#0f5c5a;fill-rule:nonzero;"/><path d="M408,741l-42,138l135,-75l-93,-63Z" style="fill:#15a2a2;fill-rule:nonzero;"/><path d="M306,339l144,33l6,-201l-150,168Z" style="fill:#138e8e;fill-rule:nonzero;"/><path d="M398,0l-68,120l126,51l-58,-171Z" style="fill:#105e5e;fill-rule:nonzero;"/><path d="M408,741l93,63l15,-21l-108,-42Z" style="fill:#57c5cd;fill-rule:nonzero;"/><path d="M408,741l108,42l9,-54l-117,12Z" style="fill:#0bb1b6;fill-rule:nonzero;"/><path d="M450,372l-6,57l90,-18l-84,-39Z" style="fill:#071413;fill-rule:nonzero;"/><path d="M456,603l-48,138l117,-99l-69,-39Z" style="fill:#4ec4cb;fill-rule:nonzero;"/><path d="M408,741l117,-12l0,-87l-117,99Z" style="fill:#0e585c;fill-rule:nonzero;"/><path d="M398,0l58,171l42,-171l-100,0Z" style="fill:#0b3f3e;fill-rule:nonzero;"/><path d="M525,642l0,87l24,-48l-24,-39Z" style="fill:#109fa3;fill-rule:nonzero;"/><path d="M456,171l-6,201l93,-30l-87,-171Z" style="fill:#060c0b;fill-rule:nonzero;"/><path d="M450,372l84,39l9,-69l-93,30Z" style="fill:#071315;fill-rule:nonzero;"/><path d="M444,429l36,90l54,-108l-90,18Z" style="fill:#9ed9de;fill-rule:nonzero;"/><path d="M534,411l-54,108l96,-66l-42,-42Z" style="fill:#072b2e;fill-rule:nonzero;"/><path d="M480,519l-24,84l69,39l-45,-123Z" style="fill:#0f9491;fill-rule:nonzero;"/><path d="M450,564l6,39l24,-84l-30,45Z" style="fill:#5ec8d4;fill-rule:nonzero;"/><path d="M498,0l-42,171l120,-18l-78,-153Z" style="fill:#115e5c;fill-rule:nonzero;"/><path d="M516,783l-15,21l21,66l-6,-87Z" style="fill:#1dbcbc;fill-rule:nonzero;"/><path d="M525,642l24,39l60,-54l-84,15Z" style="fill:#0f6666;fill-rule:nonzero;"/><path d="M480,519l45,123l84,-15l-129,-108Z" style="fill:#9edae6;fill-rule:nonzero;"/><path d="M576,453l-96,66l129,108l-33,-174Z" style="fill:#0d5a57;fill-rule:nonzero;"/><path d="M498,0l78,153l21,-153l-99,0Z" style="fill:#093334;fill-rule:nonzero;"/><path d="M456,171l87,171l33,-189l-120,18Z" style="fill:#082021;fill-rule:nonzero;"/><path d="M609,627l-60,54l117,-27l-57,-27Z" style="fill:#9edae5;fill-rule:nonzero;"/><path d="M543,342l-9,69l42,42l-33,-111Z" style="fill:#0a4b4a;fill-rule:nonzero;"/><path d="M525,729l-9,54l210,-21l-201,-33Z" style="fill:#17b6b3;fill-rule:nonzero;"/><path d="M549,681l-24,48l201,33l-177,-81Z" style="fill:#0f5c60;fill-rule:nonzero;"/><path d="M666,654l-117,27l177,81l-60,-108Z" style="fill:#0b3a3a;fill-rule:nonzero;"/><path d="M597,0l-21,153l156,-57l-135,-96Z" style="fill:#092e30;fill-rule:nonzero;"/><path d="M697,0l-100,0l135,96l-35,-96Z" style="fill:#12afad;fill-rule:nonzero;"/><path d="M609,627l57,27l66,-30l-123,3Z" style="fill:#d1edf2;fill-rule:nonzero;"/><path d="M516,783l6,87l204,-108l-210,21Z" style="fill:#0f7f7f;fill-rule:nonzero;"/><path d="M726,762l-204,108l231,-36l-27,-72Z" style="fill:#65c9d2;fill-rule:nonzero;"/><path d="M576,453l33,174l144,-126l-177,-48Z" style="fill:#0d9699;fill-rule:nonzero;"/><path d="M543,342l33,111l189,-105l-222,-6Z" style="fill:#105c5b;fill-rule:nonzero;"/><path d="M609,627l123,-3l21,-123l-144,126Z" style="fill:#0e8080;fill-rule:nonzero;"/><path d="M666,654l60,108l48,-78l-108,-30Z" style="fill:#106162;fill-rule:nonzero;"/><path d="M732,624l-66,30l108,30l-42,-60Z" style="fill:#0f5f5f;fill-rule:nonzero;"/><path d="M576,453l177,48l12,-153l-189,105Z" style="fill:#095253;fill-rule:nonzero;"/><path d="M576,153l-33,189l222,6l-189,-195Z" style="fill:#041615;fill-rule:nonzero;"/><path d="M697,0l35,96l65,-96l-100,0Z" style="fill:#56c6d0;fill-rule:nonzero;"/><path d="M726,762l27,72l42,-9l-69,-63Z" style="fill:#37bfc1;fill-rule:nonzero;"/><path d="M732,96l-156,57l189,195l-33,-252Z" style="fill:#85d2e0;fill-rule:nonzero;"/><path d="M797,0l-65,96l120,3l-55,-99Z" style="fill:#14a2a4;fill-rule:nonzero;"/><path d="M846,24l-49,-24l55,99l-6,-75Z" style="fill:#e0f3f8;fill-rule:nonzero;"/><path d="M858,675l-84,9l93,27l-9,-36Z" style="fill:#138585;fill-rule:nonzero;"/><path d="M774,684l21,141l72,-114l-93,-27Z" style="fill:#0c7777;fill-rule:nonzero;"/><path d="M774,684l-48,78l69,63l-21,-141Z" style="fill:#106062;fill-rule:nonzero;"/><path d="M732,96l33,252l117,-153l-150,-99Z" style="fill:#12afad;fill-rule:nonzero;"/><path d="M882,192l-150,-96l150,99l0,-3Z" style="fill:#61c8d0;fill-rule:nonzero;"/><path d="M852,99l-120,-3l150,96l-30,-93Z" style="fill:#062d2c;fill-rule:nonzero;"/><path d="M732,624l42,60l84,-9l-126,-51Z" style="fill:#0e7d7e;fill-rule:nonzero;"/><path d="M867,711l-72,114l111,-15l-39,-99Z" style="fill:#16a5a5;fill-rule:nonzero;"/><path d="M882,195l-117,153l138,-45l-21,-108Z" style="fill:#10a0a0;fill-rule:nonzero;"/><path d="M797,0l49,24l50,-24l-99,0Z" style="fill:#c2e7ec;fill-rule:nonzero;"/><path d="M765,348l-12,153l168,-81l-156,-72Z" style="fill:#0a4d50;fill-rule:nonzero;"/><path d="M753,501l-21,123l126,51l-105,-174Z" style="fill:#0d9698;fill-rule:nonzero;"/><path d="M903,303l-138,45l156,72l-18,-117Z" style="fill:#0a4445;fill-rule:nonzero;"/><path d="M921,420l-168,81l192,-9l-24,-72Z" style="fill:#072021;fill-rule:nonzero;"/><path d="M846,24l6,75l44,-99l-50,24Z" style="fill:#148c8b;fill-rule:nonzero;"/><path d="M753,501l105,174l87,-183l-192,9Z" style="fill:#15a2a3;fill-rule:nonzero;"/><path d="M903,303l75,51l0,-33l-75,-18Z" style="fill:#0c5553;fill-rule:nonzero;"/><path d="M903,303l18,117l57,-66l-75,-51Z" style="fill:#119392;fill-rule:nonzero;"/><path d="M921,420l24,72l42,-51l-66,-21Z" style="fill:#0fb6b8;fill-rule:nonzero;"/><path d="M882,192l0,3l111,0l-111,-3Z" style="fill:#18bbb6;fill-rule:nonzero;"/><path d="M882,195l21,108l90,-108l-111,0Z" style="fill:#25bdbe;fill-rule:nonzero;"/><path d="M978,354l-57,66l66,21l-9,-87Z" style="fill:#0d585a;fill-rule:nonzero;"/><path d="M867,711l39,99l36,3l-75,-102Z" style="fill:#75cdd4;fill-rule:nonzero;"/><path d="M867,711l75,102l78,-51l-153,-51Z" style="fill:#20bcbd;fill-rule:nonzero;"/><path d="M942,813l75,-9l3,-42l-78,51Z" style="fill:#fafdff;fill-rule:nonzero;"/><path d="M903,303l75,18l15,-126l-90,108Z" style="fill:#0a7879;fill-rule:nonzero;"/><path d="M852,99l30,93l111,3l-141,-96Z" style="fill:#37bfc2;fill-rule:nonzero;"/><path d="M867,711l153,51l18,-42l-171,-9Z" style="fill:#73cdd9;fill-rule:nonzero;"/><path d="M896,0l-44,99l144,-99l-100,0Z" style="fill:#094241;fill-rule:nonzero;"/><path d="M858,675l9,36l171,9l-180,-45Z" style="fill:#0d555a;fill-rule:nonzero;"/><path d="M978,354l9,87l69,-42l-78,-45Z" style="fill:#0c5052;fill-rule:nonzero;"/><path d="M1017,9l-21,-9l63,69l-42,-60Z" style="fill:#6dcbd6;fill-rule:nonzero;"/><path d="M852,99l141,96l3,-195l-144,99Z" style="fill:#0f6362;fill-rule:nonzero;"/><path d="M996,0l-3,195l66,-126l-63,-69Z" style="fill:#094b4d;fill-rule:nonzero;"/><path d="M987,441l-42,51l126,9l-84,-60Z" style="fill:#049c99;fill-rule:nonzero;"/><path d="M945,492l-87,183l204,15l-117,-198Z" style="fill:#0a4345;fill-rule:nonzero;"/><path d="M858,675l180,45l24,-30l-204,-15Z" style="fill:#9cd9e3;fill-rule:nonzero;"/><path d="M1056,399l-69,42l84,60l-15,-102Z" style="fill:#106969;fill-rule:nonzero;"/><path d="M1020,762l-3,42l81,-15l-78,-27Z" style="fill:#46c2c6;fill-rule:nonzero;"/><path d="M1017,804l6,24l75,-39l-81,15Z" style="fill:#73cddc;fill-rule:nonzero;"/><path d="M1017,9l42,60l36,-69l-78,9Z" style="fill:#0f6462;fill-rule:nonzero;"/><path d="M978,321l0,33l78,45l-78,-78Z" style="fill:#071e21;fill-rule:nonzero;"/><path d="M1038,720l-18,42l78,27l-60,-69Z" style="fill:#f9fdff;fill-rule:nonzero;"/><path d="M1116,324l-60,75l60,-51l0,-24Z" style="fill:#13a0a1;fill-rule:nonzero;"/><path d="M978,321l78,78l60,-75l-138,-3Z" style="fill:#0c5558;fill-rule:nonzero;"/><path d="M1110,297l-132,24l138,3l-6,-27Z" style="fill:#0a393b;fill-rule:nonzero;"/><path d="M993,195l-15,126l132,-24l-117,-102Z" style="fill:#0f7a78;fill-rule:nonzero;"/><path d="M945,492l117,198l9,-189l-126,-9Z" style="fill:#0d8181;fill-rule:nonzero;"/><path d="M993,195l117,102l21,-81l-138,-21Z" style="fill:#12a29f;fill-rule:nonzero;"/><path d="M1095,0l-36,69l72,-21l-36,-48Z" style="fill:#1abcba;fill-rule:nonzero;"/><path d="M1062,690l-24,30l60,69l-36,-99Z" style="fill:#38c0c4;fill-rule:nonzero;"/><path d="M996,0l21,9l78,-9l-99,0Z" style="fill:#64c8d1;fill-rule:nonzero;"/><path d="M1056,399l15,102l75,-45l-90,-57Z" style="fill:#138b89;fill-rule:nonzero;"/><path d="M1116,348l-60,51l93,21l-33,-72Z" style="fill:#94d6de;fill-rule:nonzero;"/><path d="M1056,399l90,57l3,-36l-93,-21Z" style="fill:#57c6d2;fill-rule:nonzero;"/><path d="M1059,69l-66,126l138,21l-72,-147Z" style="fill:#0c7272;fill-rule:nonzero;"/><path d="M1131,216l-21,81l63,-36l-42,-45Z" style="fill:#0a3e40;fill-rule:nonzero;"/><path d="M1098,789l-75,39l84,141l-9,-180Z" style="fill:#106d71;fill-rule:nonzero;"/><path d="M1095,0l36,48l64,-48l-100,0Z" style="fill:#4fc4ca;fill-rule:nonzero;"/><path d="M1110,297l6,27l57,-63l-63,36Z" style="fill:#12b3b2;fill-rule:nonzero;"/><path d="M1173,261l-57,63l84,-24l-27,-39Z" style="fill:#12908c;fill-rule:nonzero;"/><path d="M1131,48l-72,21l72,147l0,-168Z" style="fill:#040407;fill-rule:nonzero;"/><path d="M1146,456l-75,45l144,39l-69,-84Z" style="fill:#0f696b;fill-rule:nonzero;"/><path d="M1116,324l0,24l84,-48l-84,24Z" style="fill:#17bbbb;fill-rule:nonzero;"/><path d="M1116,348l33,72l69,-39l-102,-33Z" style="fill:#0d6f70;fill-rule:nonzero;"/><path d="M1098,789l9,180l114,-120l-123,-60Z" style="fill:#9bd9e0;fill-rule:nonzero;"/><path d="M1200,300l-84,48l102,33l-18,-81Z" style="fill:#0b5454;fill-rule:nonzero;"/><path d="M1071,501l-9,189l153,-150l-144,-39Z" style="fill:#35bfc2;fill-rule:nonzero;"/><path d="M1200,300l33,9l12,-12l-45,3Z" style="fill:#13999e;fill-rule:nonzero;"/><path d="M1149,420l-3,36l102,-3l-99,-33Z" style="fill:#0b8180;fill-rule:nonzero;"/><path d="M1218,381l-69,39l99,33l-30,-72Z" style="fill:#17aaa8;fill-rule:nonzero;"/><path d="M1146,456l69,84l33,-87l-102,3Z" style="fill:#089b9c;fill-rule:nonzero;"/><path d="M1200,300l18,81l15,-72l-33,-9Z" style="fill:#0e7472;fill-rule:nonzero;"/><path d="M1173,261l27,39l57,-57l-84,18Z" style="fill:#73cdd8;fill-rule:nonzero;"/><path d="M1200,300l45,-3l12,-54l-57,57Z" style="fill:#bbe4ec;fill-rule:nonzero;"/><path d="M1257,243l-12,54l21,-15l-9,-39Z" style="fill:#fffffe;fill-rule:nonzero;"/><path d="M1131,216l42,45l84,-18l-126,-27Z" style="fill:#1daeb0;fill-rule:nonzero;"/><path d="M1195,0l-64,48l153,48l-89,-96Z" style="fill:#119496;fill-rule:nonzero;"/><path d="M1215,540l-153,150l228,-12l-75,-138Z" style="fill:#0e6e6f;fill-rule:nonzero;"/><path d="M1195,0l89,96l6,-30l-95,-66Z" style="fill:#6ecbd8;fill-rule:nonzero;"/><path d="M1131,48l0,168l153,-120l-153,-48Z" style="fill:#093839;fill-rule:nonzero;"/><path d="M1062,690l36,99l192,-111l-228,12Z" style="fill:#9edae0;fill-rule:nonzero;"/><path d="M1257,243l9,39l30,-42l-39,3Z" style="fill:#b8e3e8;fill-rule:nonzero;"/><path d="M1195,0l95,66l5,-66l-100,0Z" style="fill:#0f6868;fill-rule:nonzero;"/><path d="M1248,453l-33,87l78,-63l-45,-24Z" style="fill:#0c7878;fill-rule:nonzero;"/><path d="M1218,381l30,72l45,-72l-75,0Z" style="fill:#139395;fill-rule:nonzero;"/><path d="M1233,309l-15,72l75,0l-60,-72Z" style="fill:#15a2a2;fill-rule:nonzero;"/><path d="M1245,297l-12,12l60,72l-48,-84Z" style="fill:#29bdbc;fill-rule:nonzero;"/><path d="M1098,789l123,60l69,-171l-192,111Z" style="fill:#12b8b4;fill-rule:nonzero;"/><path d="M1131,216l126,27l27,-147l-153,120Z" style="fill:#15bbba;fill-rule:nonzero;"/><path d="M1290,66l-6,30l39,-21l-33,-9Z" style="fill:#0d9692;fill-rule:nonzero;"/><path d="M1215,540l75,138l45,-84l-120,-54Z" style="fill:#118586;fill-rule:nonzero;"/><path d="M1293,381l-45,72l45,24l0,-96Z" style="fill:#11696c;fill-rule:nonzero;"/><path d="M1266,282l-21,15l48,84l-27,-99Z" style="fill:#115e5c;fill-rule:nonzero;"/><path d="M1290,678l-69,171l72,-12l-3,-159Z" style="fill:#45c2c9;fill-rule:nonzero;"/><path d="M1296,240l-30,42l66,-27l-36,-15Z" style="fill:#98d8e2;fill-rule:nonzero;"/><path d="M1284,96l-27,147l39,-3l-12,-144Z" style="fill:#26bdbc;fill-rule:nonzero;"/><path d="M1295,0l-5,66l48,-60l-43,-6Z" style="fill:#168a89;fill-rule:nonzero;"/><path d="M1335,594l-45,84l60,-18l-15,-66Z" style="fill:#11b0ae;fill-rule:nonzero;"/><path d="M1290,66l33,9l15,-69l-48,60Z" style="fill:#0e575a;fill-rule:nonzero;"/><path d="M1293,477l-78,63l120,54l-42,-117Z" style="fill:#0f6c6c;fill-rule:nonzero;"/><path d="M1293,381l0,96l57,-90l-57,-6Z" style="fill:#106967;fill-rule:nonzero;"/><path d="M1293,477l42,117l30,-18l-72,-99Z" style="fill:#0c7372;fill-rule:nonzero;"/><path d="M1266,282l27,99l39,-126l-66,27Z" style="fill:#093837;fill-rule:nonzero;"/><path d="M1332,255l-39,126l57,6l-18,-132Z" style="fill:#040908;fill-rule:nonzero;"/><path d="M1335,594l15,66l48,-45l-63,-21Z" style="fill:#138785;fill-rule:nonzero;"/><path d="M1365,576l-30,18l63,21l-33,-39Z" style="fill:#118785;fill-rule:nonzero;"/><path d="M1332,255l57,9l6,-39l-63,30Z" style="fill:#11676a;fill-rule:nonzero;"/><path d="M1296,240l36,15l63,-30l-99,15Z" style="fill:#37bfc1;fill-rule:nonzero;"/><path d="M1284,96l12,144l99,-15l-111,-129Z" style="fill:#0b7b79;fill-rule:nonzero;"/><path d="M1323,75l-39,21l111,129l-72,-150Z" style="fill:#5dc7d2;fill-rule:nonzero;"/><path d="M1338,6l-15,69l71,-75l-56,6Z" style="fill:#071819;fill-rule:nonzero;"/><path d="M1332,255l18,132l39,-123l-57,-9Z" style="fill:#050808;fill-rule:nonzero;"/><path d="M1290,678l3,159l57,-177l-60,18Z" style="fill:#106465;fill-rule:nonzero;"/><path d="M1394,0l-71,75l135,-33l-64,-42Z" style="fill:#0b7a7a;fill-rule:nonzero;"/><path d="M1350,387l-57,90l162,-48l-105,-42Z" style="fill:#f6fcfd;fill-rule:nonzero;"/><path d="M1323,75l72,150l78,-81l-150,-69Z" style="fill:#62c8d3;fill-rule:nonzero;"/><path d="M1458,42l-135,33l150,69l-15,-102Z" style="fill:#0d7e7f;fill-rule:nonzero;"/><path d="M1293,477l72,99l90,-147l-162,48Z" style="fill:#0e6d6e;fill-rule:nonzero;"/><path d="M1394,0l64,42l36,-42l-100,0Z" style="fill:#62c8d3;fill-rule:nonzero;"/><path d="M1398,615l-48,45l141,78l-93,-123Z" style="fill:#18acaa;fill-rule:nonzero;"/><path d="M1350,660l-57,177l198,-99l-141,-78Z" style="fill:#0d5455;fill-rule:nonzero;"/><path d="M1389,264l-39,123l105,42l-66,-165Z" style="fill:#0a4645;fill-rule:nonzero;"/><path d="M1458,42l15,102l48,-48l-63,-54Z" style="fill:#118586;fill-rule:nonzero;"/><path d="M1293,837l117,102l81,-201l-198,99Z" style="fill:#106260;fill-rule:nonzero;"/><path d="M1491,738l-81,201l108,-33l-27,-168Z" style="fill:#106062;fill-rule:nonzero;"/><path d="M1295,0l43,6l56,-6l-99,0Z" style="fill:#0e6d6e;fill-rule:nonzero;"/><path d="M1536,438l-81,-9l96,48l-15,-39Z" style="fill:#106162;fill-rule:nonzero;"/><path d="M1389,264l66,165l102,-72l-168,-93Z" style="fill:#fafdfb;fill-rule:nonzero;"/><path d="M1455,429l81,9l21,-81l-102,72Z" style="fill:#148c8d;fill-rule:nonzero;"/><path d="M1455,429l-57,186l153,-138l-96,-48Z" style="fill:#178c8c;fill-rule:nonzero;"/><path d="M1494,0l-36,42l63,54l-27,-96Z" style="fill:#acdee5;fill-rule:nonzero;"/><path d="M1365,576l33,39l57,-186l-90,147Z" style="fill:#106162;fill-rule:nonzero;"/><path d="M1521,96l-48,48l114,-21l-66,-27Z" style="fill:#168e92;fill-rule:nonzero;"/><path d="M1557,357l-21,81l69,-27l-48,-54Z" style="fill:#0b9d9c;fill-rule:nonzero;"/><path d="M1494,0l27,96l73,-96l-100,0Z" style="fill:#0b5858;fill-rule:nonzero;"/><path d="M1395,225l-6,39l168,93l-162,-132Z" style="fill:#0b7976;fill-rule:nonzero;"/><path d="M1536,438l15,39l54,-66l-69,27Z" style="fill:#0a4f51;fill-rule:nonzero;"/><path d="M1473,144l-78,81l162,132l-84,-213Z" style="fill:#118583;fill-rule:nonzero;"/><path d="M1521,96l66,27l7,-123l-73,96Z" style="fill:#139292;fill-rule:nonzero;"/><path d="M1551,477l-153,138l228,-81l-75,-57Z" style="fill:#13a5a7;fill-rule:nonzero;"/><path d="M1491,738l27,168l120,-42l-147,-126Z" style="fill:#19aaa8;fill-rule:nonzero;"/><path d="M1398,615l93,123l135,-204l-228,81Z" style="fill:#7bcfdb;fill-rule:nonzero;"/><path d="M1473,144l84,213l96,-177l-180,-36Z" style="fill:#138688;fill-rule:nonzero;"/><path d="M1587,123l-114,21l180,36l-66,-57Z" style="fill:#052828;fill-rule:nonzero;"/><path d="M1605,411l-54,66l75,57l-21,-123Z" style="fill:#0f6364;fill-rule:nonzero;"/><path d="M1626,534l-135,204l198,-48l-63,-156Z" style="fill:#17a9aa;fill-rule:nonzero;"/><path d="M1653,180l-96,177l144,-69l-48,-108Z" style="fill:#052527;fill-rule:nonzero;"/><path d="M1491,738l147,126l51,-174l-198,48Z" style="fill:#178f8e;fill-rule:nonzero;"/><path d="M1710,366l-105,45l108,-3l-3,-42Z" style="fill:#0c7c7d;fill-rule:nonzero;"/><path d="M1557,357l48,54l105,-45l-153,-9Z" style="fill:#083331;fill-rule:nonzero;"/><path d="M1701,288l-144,69l153,9l-9,-78Z" style="fill:#0c7271;fill-rule:nonzero;"/><path d="M1594,0l-7,123l106,-123l-99,0Z" style="fill:#0c7777;fill-rule:nonzero;"/><path d="M1605,411l21,123l87,-126l-108,3Z" style="fill:#0c433f;fill-rule:nonzero;"/><path d="M1587,123l66,57l72,-159l-138,102Z" style="fill:#0b474b;fill-rule:nonzero;"/><path d="M1693,0l-106,123l138,-102l-32,-21Z" style="fill:#0a4848;fill-rule:nonzero;"/><path d="M1689,690l-51,174l147,-93l-96,-81Z" style="fill:#35bfc2;fill-rule:nonzero;"/><path d="M1638,864l69,27l78,-120l-147,93Z" style="fill:#0c4a49;fill-rule:nonzero;"/><path d="M1725,21l-72,159l117,-21l-45,-138Z" style="fill:#082f31;fill-rule:nonzero;"/><path d="M1782,690l-93,0l96,81l-3,-81Z" style="fill:#f8fcfd;fill-rule:nonzero;"/><path d="M1653,180l48,108l69,-129l-117,21Z" style="fill:#09383a;fill-rule:nonzero;"/><path d="M1693,0l32,21l68,-21l-100,0Z" style="fill:#094749;fill-rule:nonzero;"/><path d="M1725,21l45,138l33,-96l-78,-42Z" style="fill:#09413f;fill-rule:nonzero;"/><path d="M1793,0l-68,21l78,42l-10,-63Z" style="fill:#10b5b8;fill-rule:nonzero;"/><path d="M1707,891l75,6l3,-126l-78,120Z" style="fill:#10a0a0;fill-rule:nonzero;"/><path d="M1793,0l10,63l24,-51l-34,-12Z" style="fill:#0f7f7f;fill-rule:nonzero;"/><path d="M1713,408l138,42l3,-6l-141,-36Z" style="fill:#071f1d;fill-rule:nonzero;"/><path d="M1626,534l63,156l93,0l-156,-156Z" style="fill:#81d1df;fill-rule:nonzero;"/><path d="M1626,534l156,156l87,-117l-243,-39Z" style="fill:#0c797a;fill-rule:nonzero;"/><path d="M1803,63l-33,96l96,-63l-63,-33Z" style="fill:#106465;fill-rule:nonzero;"/><path d="M1866,96l-96,63l102,-57l-6,-6Z" style="fill:#19a7a6;fill-rule:nonzero;"/><path d="M1713,408l-87,126l243,39l-156,-165Z" style="fill:#0a3b37;fill-rule:nonzero;"/><path d="M1851,450l-138,-42l156,165l-18,-123Z" style="fill:#062521;fill-rule:nonzero;"/><path d="M1710,366l3,42l141,36l-144,-78Z" style="fill:#073131;fill-rule:nonzero;"/><path d="M1785,771l-3,126l54,0l-51,-126Z" style="fill:#093737;fill-rule:nonzero;"/><path d="M1827,12l-24,51l63,33l-39,-84Z" style="fill:#072426;fill-rule:nonzero;"/><path d="M1701,288l9,78l195,-39l-204,-39Z" style="fill:#083432;fill-rule:nonzero;"/><path d="M1710,366l144,78l51,-117l-195,39Z" style="fill:#0c5150;fill-rule:nonzero;"/><path d="M1827,12l39,84l26,-96l-65,12Z" style="fill:#07292d;fill-rule:nonzero;"/><path d="M1785,771l51,126l84,-78l-135,-48Z" style="fill:#089899;fill-rule:nonzero;"/><path d="M1782,690l3,81l135,-33l-138,-48Z" style="fill:#feffff;fill-rule:nonzero;"/><path d="M1770,159l-69,129l204,39l-135,-168Z" style="fill:#072021;fill-rule:nonzero;"/><path d="M1920,738l-135,33l135,48l0,-81Z" style="fill:#0d7573;fill-rule:nonzero;"/><path d="M1793,0l34,12l65,-12l-99,0Z" style="fill:#0d7075;fill-rule:nonzero;"/><path d="M1892,0l-20,102l66,-99l-46,-3Z" style="fill:#81d1db;fill-rule:nonzero;"/><path d="M1869,573l-87,117l138,48l-51,-165Z" style="fill:#3ec1c6;fill-rule:nonzero;"/><path d="M1866,96l6,6l20,-102l-26,96Z" style="fill:#051715;fill-rule:nonzero;"/><path d="M1959,579l-90,-6l114,39l-24,-33Z" style="fill:#0e6d6e;fill-rule:nonzero;"/><path d="M1872,102l-102,57l135,168l-33,-225Z" style="fill:#0c5052;fill-rule:nonzero;"/><path d="M1869,573l51,165l63,-126l-114,-39Z" style="fill:#108885;fill-rule:nonzero;"/><path d="M1892,0l46,3l54,-3l-100,0Z" style="fill:#0e6d6e;fill-rule:nonzero;"/><path d="M1920,819l80,77l0,-99l-80,22Z" style="fill:#dff2f6;fill-rule:nonzero;"/><path d="M1920,738l0,81l80,-22l-80,-59Z" style="fill:#f6fcfd;fill-rule:nonzero;"/><path d="M1920,738l80,59l0,-100l-80,41Z" style="fill:#106969;fill-rule:nonzero;"/><path d="M1983,612l-63,126l80,-41l-17,-85Z" style="fill:#072b2e;fill-rule:nonzero;"/><path d="M1959,579l24,33l17,-15l-41,-18Z" style="fill:#148886;fill-rule:nonzero;"/><path d="M1983,612l17,85l0,-100l-17,15Z" style="fill:#09413f;fill-rule:nonzero;"/><path d="M1869,573l90,6l41,-81l-131,75Z" style="fill:#15a2a1;fill-rule:nonzero;"/><path d="M1851,450l18,123l131,-75l-149,-48Z" style="fill:#093434;fill-rule:nonzero;"/><path d="M1854,444l-3,6l149,48l-146,-54Z" style="fill:#0c5352;fill-rule:nonzero;"/><path d="M1959,579l41,18l0,-99l-41,81Z" style="fill:#149394;fill-rule:nonzero;"/><path d="M1854,444l146,54l0,-100l-146,46Z" style="fill:#072625;fill-rule:nonzero;"/><path d="M1905,327l-51,117l146,-46l-95,-71Z" style="fill:#093334;fill-rule:nonzero;"/><path d="M1905,327l95,71l0,-100l-95,29Z" style="fill:#79ced7;fill-rule:nonzero;"/><path d="M1905,327l95,-29l0,-99l-95,128Z" style="fill:#061f22;fill-rule:nonzero;"/><path d="M1872,102l33,225l95,-128l-128,-97Z" style="fill:#17aaaa;fill-rule:nonzero;"/><path d="M1992,0l-54,3l62,96l-8,-99Z" style="fill:#093535;fill-rule:nonzero;"/><path d="M1938,3l-66,99l128,-3l-62,-96Z" style="fill:#0d7e7c;fill-rule:nonzero;"/><path d="M1872,102l128,97l0,-100l-128,3Z" style="fill:#0b5150;fill-rule:nonzero;"/><path d="M1992,0l8,99l0,-99l-8,0Z" style="fill:#77cedb;fill-rule:nonzero;"/></g></svg>